<?xml version="1.0" standalone="no"?>
<!DOCTYPE svg PUBLIC "-//W3C//DTD SVG 20010904//EN"
 "http://www.w3.org/TR/2001/REC-SVG-20010904/DTD/svg10.dtd">
<svg version="1.0" xmlns="http://www.w3.org/2000/svg"
 width="1897.000000pt" height="842.000000pt" viewBox="0 0 1897.000000 842.000000"
 preserveAspectRatio="xMidYMid meet">

<g transform="translate(0.000000,842.000000) scale(0.100000,-0.100000)"
fill="#000000" stroke="none">
<path d="M13546 6293 l-1797 -1797 1793 -1793 c1189 -1189 1800 -1793 1813
-1793 13 0 621 601 1808 1788 983 983 1787 1792 1787 1798 0 16 -3580 3594
-3596 3594 -6 0 -820 -809 -1808 -1797z"/>
<path d="M783 7667 c-17 -29 -39 -61 -47 -72 -60 -76 -285 -418 -281 -426 4
-5 99 -75 213 -155 114 -81 231 -165 261 -187 37 -28 58 -37 67 -31 8 5 65 83
128 174 62 91 120 166 129 168 9 2 37 -13 64 -33 165 -126 430 -305 448 -303
11 2 37 28 57 58 21 30 44 62 51 70 33 40 277 400 277 409 0 6 -12 19 -27 28
-16 10 -80 54 -143 99 -63 44 -153 107 -200 139 -47 33 -104 72 -127 89 -37
25 -44 27 -59 15 -9 -7 -60 -79 -113 -159 -102 -155 -121 -180 -134 -180 -4 0
-54 32 -110 72 -288 202 -400 278 -410 278 -7 0 -26 -24 -44 -53z"/>
<path d="M3519 7353 c-151 -157 -227 -258 -276 -364 -28 -59 -53 -183 -53
-256 0 -104 45 -267 92 -335 10 -14 18 -28 18 -31 0 -3 14 -28 30 -54 l30 -49
-2 -886 c-3 -874 -3 -887 -23 -902 -17 -13 -86 -15 -482 -16 l-463 0 -2 1068
-3 1067 -58 3 -57 3 -33 -73 c-18 -40 -41 -93 -51 -118 -10 -25 -24 -58 -31
-75 -7 -16 -50 -120 -94 -229 l-81 -199 0 -163 c0 -146 -2 -163 -17 -168 -10
-3 -209 -50 -443 -105 -234 -55 -438 -105 -455 -110 -209 -65 -360 -228 -425
-461 -7 -25 -17 -58 -22 -75 -4 -16 -24 -88 -43 -160 -33 -122 -46 -168 -66
-240 -16 -55 -46 -169 -74 -275 -15 -58 -30 -116 -35 -130 -4 -14 -13 -45 -20
-70 -7 -25 -16 -56 -20 -70 -5 -14 -20 -72 -35 -130 -15 -58 -31 -115 -36
-128 -16 -41 -10 -63 37 -118 l47 -54 621 2 621 3 40 80 c22 44 64 132 94 195
30 63 79 167 109 230 29 63 58 126 64 140 19 48 43 90 53 92 6 2 14 -31 18
-72 11 -104 44 -242 75 -314 88 -207 240 -315 487 -345 63 -8 716 -11 2155
-11 l2065 0 294 220 c162 121 300 220 307 220 7 0 19 -6 26 -12 56 -54 335
-281 385 -314 34 -23 88 -52 120 -64 130 -49 156 -50 1098 -48 l880 3 3 785
c2 680 0 800 -14 898 -14 100 -37 194 -63 257 -49 117 -100 201 -193 315 -79
97 -75 92 -147 188 l-55 72 -57 0 c-32 0 -60 -4 -64 -9 -3 -5 -10 -33 -16 -63
-6 -29 -15 -69 -19 -88 -11 -47 -40 -185 -51 -240 -5 -25 -13 -63 -18 -85 -5
-22 -14 -65 -21 -95 -7 -30 -16 -73 -22 -95 -5 -22 -12 -63 -15 -92 l-5 -52
98 -113 c55 -62 103 -118 109 -124 26 -29 81 -91 205 -234 74 -85 147 -168
162 -185 l28 -30 -399 -3 c-220 -1 -582 -1 -804 0 l-405 3 49 53 c119 128 205
293 247 472 34 145 38 259 12 420 -15 94 -21 112 -67 210 -79 165 -219 279
-403 327 -98 25 -272 23 -379 -6 -223 -59 -442 -225 -575 -435 -77 -120 -121
-222 -179 -406 -64 -205 -82 -305 -93 -515 -3 -66 -7 -121 -9 -123 -2 -2 -525
-5 -577 -3 -17 1 -18 20 -18 250 0 277 -7 322 -65 446 -39 82 -133 189 -214
244 -68 45 -379 217 -482 265 -184 87 -362 89 -520 4 -55 -29 -168 -117 -943
-738 -365 -293 -394 -315 -401 -309 -2 3 13 41 34 84 164 340 209 534 218 936
4 175 7 210 21 225 9 11 35 42 57 69 21 28 42 52 45 55 3 3 66 79 140 170 74
91 142 174 152 184 10 11 18 25 18 32 0 10 -283 287 -421 413 l-49 44 0 304 0
303 -58 0 -59 0 -84 -87z m-1541 -2428 l2 -368 -27 -36 c-15 -20 -36 -46 -47
-58 l-20 -23 -603 0 c-587 0 -603 1 -603 19 0 14 86 74 333 231 182 117 348
223 367 235 19 13 145 94 280 180 135 87 256 166 269 176 13 11 29 18 35 16 8
-3 12 -119 14 -372z m5784 224 c198 -42 340 -192 371 -395 l7 -41 -340 -128
c-188 -70 -354 -128 -371 -127 -20 0 -51 18 -97 54 -196 154 -419 332 -431
344 -12 11 -10 18 20 44 88 79 286 180 420 216 164 43 317 55 421 33z m-3107
-94 c96 -10 70 1 1048 -465 141 -68 256 -125 253 -127 -5 -5 -2358 -5 -2363 0
-6 6 618 482 682 521 68 41 135 65 209 76 50 7 69 7 171 -5z"/>
<path d="M9069 7203 c-90 -131 -173 -251 -186 -266 -13 -16 -23 -36 -23 -45 1
-11 103 -90 267 -206 209 -149 269 -187 282 -180 9 6 40 46 69 90 29 43 59 87
68 97 8 10 35 49 59 85 24 37 74 109 110 160 36 52 65 101 65 110 0 10 -58 58
-142 117 -345 243 -391 275 -399 275 -4 0 -81 -107 -170 -237z"/>
<path d="M7099 7337 c-34 -50 -65 -94 -68 -97 -3 -3 -60 -85 -125 -183 -71
-105 -116 -181 -110 -186 10 -10 492 -353 511 -364 24 -14 46 9 148 157 137
197 133 193 150 181 7 -6 60 -43 117 -83 57 -40 139 -98 183 -129 44 -31 108
-76 141 -99 l61 -44 50 68 c68 92 324 464 330 478 5 13 -36 45 -187 149 -47
32 -107 75 -135 94 -27 19 -87 61 -133 93 -45 32 -86 58 -90 58 -6 0 -103
-141 -137 -198 -5 -9 -13 -19 -16 -22 -4 -3 -23 -31 -43 -63 -39 -61 -60 -76
-82 -61 -7 5 -113 79 -236 165 -123 86 -233 161 -245 167 -20 11 -26 5 -84
-81z"/>
<path d="M7403 2758 c-14 -20 -31 -58 -58 -131 l-25 -67 0 -525 c0 -440 2
-525 14 -525 14 0 25 22 47 95 6 22 15 49 19 60 26 68 30 153 30 616 0 274 -4
489 -9 489 -5 0 -13 -6 -18 -12z"/>
<path d="M5981 2635 c-29 -41 -50 -79 -47 -83 8 -13 143 -102 154 -102 5 0 22
20 38 45 15 25 34 45 41 45 7 0 40 -20 74 -45 34 -25 66 -45 73 -45 10 0 106
138 106 152 0 11 -136 107 -152 108 -4 0 -21 -20 -38 -45 -17 -25 -37 -45 -44
-45 -7 0 -39 20 -72 45 -32 24 -64 45 -70 45 -6 0 -35 -34 -63 -75z"/>
<path d="M7931 2356 c-6 -8 -23 -58 -36 -112 l-25 -98 42 -45 c24 -24 48 -50
53 -56 6 -7 42 -47 81 -91 119 -132 134 -151 127 -158 -3 -3 -111 -6 -238 -6
-228 0 -252 3 -254 33 0 13 -13 82 -18 100 -2 9 -11 17 -19 17 -12 0 -14 -33
-14 -199 l0 -200 278 -3 c152 -2 287 0 300 5 l23 7 -3 223 c-3 253 -6 263 -94
373 -27 33 -62 78 -79 99 -16 21 -35 43 -40 49 -6 6 -21 26 -34 44 -25 36 -33
39 -50 18z"/>
<path d="M6180 2235 c-5 -14 -10 -38 -10 -51 0 -14 -4 -33 -9 -42 -5 -9 -12
-40 -16 -68 -6 -49 -5 -52 42 -110 89 -109 123 -158 115 -166 -5 -5 -114 -7
-243 -6 l-234 3 -6 80 c-8 129 -23 148 -189 244 -114 66 -165 77 -224 46 -26
-14 -187 -130 -412 -297 -100 -74 -137 -84 -209 -54 -48 20 -65 60 -65 151 0
59 -3 75 -14 75 -8 0 -17 -4 -20 -9 -5 -8 -22 -101 -33 -183 -8 -57 -18 -61
-151 -56 -183 7 -189 14 -247 244 -19 74 -37 139 -40 144 -8 13 -82 12 -147
-1 -133 -29 -228 -114 -302 -274 -21 -44 -41 -87 -46 -95 -10 -19 -175 -19
-221 0 -44 19 -53 44 -59 155 -4 79 -8 100 -20 100 -15 0 -20 -18 -40 -145 -7
-41 -15 -86 -19 -100 l-8 -25 -154 0 c-174 0 -210 9 -236 59 -15 28 -77 241
-90 310 l-6 29 -77 -6 c-172 -13 -276 -89 -359 -261 -62 -128 -65 -137 -50
-186 12 -40 11 -42 -22 -76 -95 -100 -235 -183 -399 -238 -58 -19 -106 -39
-108 -45 -3 -8 214 -82 338 -116 53 -14 50 -16 113 82 48 74 96 171 123 246 9
26 20 49 23 52 4 2 81 -37 171 -86 165 -89 165 -89 182 -68 10 11 25 45 35 75
9 30 21 54 27 54 6 0 23 -16 39 -35 38 -48 78 -57 247 -53 l144 3 22 78 c12
43 24 81 28 84 7 7 26 -41 26 -66 0 -29 61 -79 110 -90 25 -6 88 -11 141 -11
109 0 98 -8 130 98 7 24 17 41 23 39 6 -3 85 -46 176 -96 90 -50 172 -91 181
-91 16 0 29 22 63 103 18 45 28 46 56 7 36 -51 66 -60 198 -60 84 0 123 4 130
13 5 6 16 41 24 76 15 71 33 88 44 44 13 -53 34 -83 77 -105 l42 -23 793 -3
793 -3 -3 268 c-3 300 -3 299 -86 408 -45 59 -68 67 -82 30z m-616 -332 c108
-54 196 -101 196 -105 0 -5 -175 -8 -390 -8 -239 0 -390 4 -390 9 0 6 28 30
63 55 34 24 85 60 112 80 82 60 125 77 172 72 25 -3 120 -44 237 -103z m-2727
-8 c6 -49 12 -111 12 -138 l1 -47 -192 96 c-106 53 -195 98 -197 100 -3 3 7
16 21 30 36 37 113 53 238 51 l105 -2 12 -90z m1337 87 c6 -10 29 -262 24
-267 -7 -8 -388 190 -388 201 0 17 59 52 106 63 49 11 251 14 258 3z"/>
<path d="M6920 2181 c-5 -11 -10 -34 -10 -51 0 -17 -4 -39 -9 -48 -5 -9 -12
-42 -16 -72 -6 -53 -5 -57 27 -90 18 -20 60 -67 93 -105 33 -39 63 -71 68 -73
28 -13 -34 -137 -111 -219 -97 -104 -239 -195 -369 -237 -29 -10 -53 -23 -53
-30 0 -11 264 -136 288 -136 24 0 148 179 200 290 86 185 125 420 88 540 -19
60 -31 81 -99 173 -59 79 -79 91 -97 58z"/>
<path d="M256 1861 c-3 -5 -3 -23 0 -39 l6 -31 547 -3 c300 -2 554 1 564 5 13
6 17 17 15 40 l-3 32 -562 3 c-328 1 -564 -2 -567 -7z"/>
<path d="M8634 1856 c-3 -8 -4 -25 -2 -38 l3 -23 563 -3 562 -2 0 40 0 40
-560 0 c-476 0 -561 -2 -566 -14z"/>
<path d="M3173 1368 c-11 -13 -37 -48 -57 -78 l-36 -55 22 -17 c70 -55 126
-88 139 -83 8 3 26 23 39 45 14 22 31 40 38 40 8 0 41 -20 75 -45 33 -25 65
-44 71 -42 14 5 104 128 105 144 1 11 -109 100 -137 110 -14 6 -58 -41 -68
-69 -9 -28 -31 -22 -100 27 -34 25 -64 45 -67 45 -2 0 -13 -10 -24 -22z"/>
</g>
</svg>
